<svg xmlns="http://www.w3.org/2000/svg" viewBox="0 0 80 80" fill="none"><defs><linearGradient id="g" x1="0" y1="0" x2="80" y2="80"><stop stop-color="#a78bfa"/><stop offset="1" stop-color="#7c5cf0"/></linearGradient></defs><rect width="80" height="80" rx="18" fill="url(#g)"/><path d="M23 27 h34 a4 4 0 0 1 4 4 v16 a4 4 0 0 1 -4 4 H41 l-9 9 v-9 h-9 a4 4 0 0 1 -4 -4 V31 a4 4 0 0 1 4 -4 Z" fill="#fff"/><path d="M40 33 l2.2 5.3 5.3 2.2 -5.3 2.2 -2.2 5.3 -2.2 -5.3 -5.3 -2.2 5.3 -2.2 Z" fill="#a78bfa"/></svg>